<?xml version="1.0" encoding="UTF-8"?>
<svg id="Layer_2" data-name="Layer 2" xmlns="http://www.w3.org/2000/svg" viewBox="0 0 37.03 37.03">
  <defs>
    <style>
      .cls-1, .cls-2 {
        fill: #f1f2f2;
      }

      .cls-3 {
        fill: #231f20;
      }

      .cls-4 {
        fill: #fff;
      }

      .cls-5 {
        fill: none;
        stroke: #fff;
        stroke-width: .5px;
      }

      .cls-5, .cls-2 {
        stroke-miterlimit: 10;
      }

      .cls-2 {
        stroke: #f1f2f2;
      }
    </style>
  </defs>
  <g id="Layer_1-2" data-name="Layer 1">
    <g>
      <g>
        <circle class="cls-2" cx="18.52" cy="18.52" r="18.02"/>
        <ellipse class="cls-3" cx="18.52" cy="18.49" rx="12.83" ry="18.21"/>
        <circle class="cls-4" cx="18.52" cy="18.89" r="7.96"/>
        <path class="cls-3" d="M25.1,18.77c-6.05.29-6.29.53-6.58,6.58-.29-6.05-.53-6.29-6.58-6.58,6.05-.29,6.29-.53,6.58-6.58.29,6.05.53,6.29,6.58,6.58Z"/>
        <path class="cls-1" d="M21.72,5.93c-3.04.15-3.16.27-3.31,3.31-.15-3.04-.27-3.16-3.31-3.31,3.04-.15,3.16-.27,3.31-3.31.15,3.04.27,3.16,3.31,3.31Z"/>
        <path class="cls-1" d="M21.69,31.42c-2.91.14-3.03.26-3.17,3.17-.14-2.91-.26-3.03-3.17-3.17,2.91-.14,3.03-.26,3.17-3.17.14,2.91.26,3.03,3.17,3.17Z"/>
        <path class="cls-3" d="M10.5,18.96c-3.9.19-4.05.34-4.24,4.24-.19-3.9-2.1-4.05-5.99-4.24,3.9-.19,5.8-.34,5.99-4.24.19,3.9.34,4.05,4.24,4.24Z"/>
        <path class="cls-3" d="M26.72,18.83c3.9-.19,4.05-.34,4.24-4.24.19,3.9,2.1,4.05,5.99,4.24-3.9.19-5.8.34-5.99,4.24-.19-3.9-.34-4.05-4.24-4.24Z"/>
      </g>
      <circle class="cls-5" cx="18.53" cy="18.51" r="18.23"/>
    </g>
  </g>
</svg>