<?xml version="1.0" encoding="UTF-8"?>
<svg id="Layer_2" data-name="Layer 2" xmlns="http://www.w3.org/2000/svg" viewBox="0 0 38.15 38.15">
  <defs>
    <style>
      .cls-1, .cls-2 {
        fill: #231f20;
      }

      .cls-3, .cls-4 {
        fill: #fff;
      }

      .cls-4, .cls-2, .cls-5 {
        stroke-miterlimit: 10;
      }

      .cls-4, .cls-5 {
        stroke: #231f20;
      }

      .cls-2 {
        stroke: #f1f2f2;
      }

      .cls-5 {
        fill: none;
        stroke-width: .5px;
      }
    </style>
  </defs>
  <g id="Layer_1-2" data-name="Layer 1">
    <g>
      <circle class="cls-1" cx="19.08" cy="19.08" r="19.08"/>
      <g>
        <ellipse class="cls-3" cx="19.08" cy="19.08" rx="13.59" ry="13.11"/>
        <path class="cls-2" d="M19.08,1.44C8.98,1.44.81,9.34.81,19.08s8.18,17.63,18.27,17.63,18.27-7.89,18.27-17.63S29.17,1.44,19.08,1.44ZM19.16,34.75c-9.13,0-16.53-7.14-16.53-15.95S10.04,2.85,19.16,2.85s16.53,7.14,16.53,15.95-7.4,15.95-16.53,15.95Z"/>
        <path class="cls-1" d="M19.08,30.48c6.53,0,11.82-5.11,11.82-11.41s-5.29-11.41-11.82-11.41-11.82,5.11-11.82,11.41,5.29,11.41,11.82,11.41ZM19.06,9.6c5.51,0,9.98,4.31,9.98,9.63s-4.47,9.63-9.98,9.63-9.98-4.31-9.98-9.63,4.47-9.63,9.98-9.63Z"/>
        <ellipse class="cls-4" cx="19.08" cy="19.08" rx="6.13" ry="5.91"/>
        <ellipse class="cls-4" cx="9.59" cy="28.31" rx="2.94" ry="2.84"/>
        <ellipse class="cls-4" cx="5.39" cy="19.08" rx="2.94" ry="2.84"/>
        <ellipse class="cls-4" cx="8.58" cy="8.92" rx="2.94" ry="2.84"/>
        <ellipse class="cls-4" cx="19.05" cy="4.76" rx="2.94" ry="2.84"/>
        <ellipse class="cls-4" cx="29.29" cy="8.97" rx="2.94" ry="2.84"/>
        <ellipse class="cls-4" cx="32.82" cy="19.13" rx="2.94" ry="2.84"/>
        <ellipse class="cls-4" cx="29.01" cy="28.8" rx="2.94" ry="2.84"/>
        <ellipse class="cls-4" cx="19.05" cy="32.2" rx="2.94" ry="2.84"/>
        <path class="cls-1" d="M23.56,19.08c-4.12.19-4.28.35-4.48,4.32-.2-3.97-.36-4.13-4.48-4.32,4.12-.19,4.28-.35,4.48-4.32.2,3.97.36,4.13,4.48,4.32Z"/>
        <path class="cls-1" d="M9.86,7.66c-1.14,1.21-1.14,1.31,0,2.52-1.26-1.1-1.35-1.1-2.61,0,1.14-1.21,1.14-1.31,0-2.52,1.26,1.1,1.35,1.1,2.61,0Z"/>
        <path class="cls-1" d="M20.94,4.6c-1.7.08-1.76.14-1.85,1.78-.08-1.64-.15-1.7-1.85-1.78,1.7-.08,1.76-.14,1.85-1.78.08,1.64.15,1.7,1.85,1.78Z"/>
        <path class="cls-1" d="M30.74,10.32c-1.26-1.1-1.35-1.1-2.61,0,1.14-1.21,1.14-1.31,0-2.52,1.26,1.1,1.35,1.1,2.61,0-1.14,1.21-1.14,1.31,0,2.52Z"/>
        <path class="cls-1" d="M33.02,20.89c-.08-1.64-.15-1.7-1.85-1.78,1.7-.08,1.76-.14,1.85-1.78.08,1.64.15,1.7,1.85,1.78-1.7.08-1.76.14-1.85,1.78Z"/>
        <path class="cls-1" d="M27.96,30.14c1.14-1.21,1.14-1.31,0-2.52,1.26,1.1,1.35,1.1,2.61,0-1.14,1.21-1.14,1.31,0,2.52-1.26-1.1-1.35-1.1-2.61,0Z"/>
        <path class="cls-1" d="M17.21,32.42c1.7-.08,1.76-.14,1.85-1.78.08,1.64.15,1.7,1.85,1.78-1.7.08-1.76.14-1.85,1.78-.08-1.64-.15-1.7-1.85-1.78Z"/>
        <path class="cls-1" d="M8.08,27.28c1.26,1.1,1.35,1.1,2.61,0-1.14,1.21-1.14,1.31,0,2.52-1.26-1.1-1.35-1.1-2.61,0,1.14-1.21,1.14-1.31,0-2.52Z"/>
        <path class="cls-1" d="M5.13,17.25c.08,1.64.15,1.7,1.85,1.78-1.7.08-1.76.14-1.85,1.78-.08-1.64-.15-1.7-1.85-1.78,1.7-.08,1.76-.14,1.85-1.78Z"/>
        <line class="cls-5" x1="32.31" y1="6.3" x2="5.84" y2="31.85"/>
        <line class="cls-5" x1="37.8" y1="19.08" x2=".36" y2="19.08"/>
        <line class="cls-5" x1="32.31" y1="31.85" x2="5.84" y2="6.3"/>
        <line class="cls-5" x1="19.08" y1="37.14" x2="19.08" y2="1.01"/>
        <ellipse class="cls-1" cx="19.07" cy="2.77" rx=".84" ry=".81"/>
        <ellipse class="cls-1" cx="30.79" cy="7.74" rx=".84" ry=".81"/>
        <ellipse class="cls-1" cx="34.8" cy="19.06" rx=".84" ry=".81"/>
        <ellipse class="cls-1" cx="30.52" cy="30.16" rx=".84" ry=".81"/>
        <ellipse class="cls-1" cx="18.97" cy="34.33" rx=".84" ry=".81"/>
        <ellipse class="cls-1" cx="7.93" cy="29.72" rx=".84" ry=".81"/>
        <ellipse class="cls-1" cx="3.15" cy="19.06" rx=".84" ry=".81"/>
        <ellipse class="cls-1" cx="7.05" cy="7.43" rx=".84" ry=".81"/>
      </g>
    </g>
  </g>
</svg>