<?xml version="1.0" encoding="UTF-8"?>
<svg id="Layer_2" data-name="Layer 2" xmlns="http://www.w3.org/2000/svg" viewBox="0 0 37.97 37.97">
  <defs>
    <style>
      .cls-1, .cls-2 {
        fill: #231f20;
      }

      .cls-3 {
        fill: #fff;
      }

      .cls-2 {
        stroke: #f1f2f2;
        stroke-miterlimit: 10;
      }
    </style>
  </defs>
  <g id="Layer_1-2" data-name="Layer 1">
    <g>
      <circle class="cls-3" cx="20.54" cy="16.98" r="15.68"/>
      <path class="cls-2" d="M18.98.5C8.77.5.5,8.77.5,18.98s8.27,18.48,18.48,18.48,18.48-8.28,18.48-18.48S29.19.5,18.98.5ZM20.71,32.37c-8.62,0-15.61-6.99-15.61-15.61S12.09,1.16,20.71,1.16s15.61,6.99,15.61,15.61-6.99,15.61-15.61,15.61Z"/>
      <path class="cls-1" d="M20.71,28.6c6.6,0,11.96-5.35,11.96-11.96s-5.35-11.96-11.96-11.96-11.96,5.35-11.96,11.96,5.35,11.96,11.96,11.96ZM19.59,7.98c5.58,0,10.1,4.52,10.1,10.1s-4.52,10.1-10.1,10.1-10.1-4.52-10.1-10.1,4.52-10.1,10.1-10.1Z"/>
      <path class="cls-1" d="M27.11,17.73c-6.56.32-6.82.58-7.14,7.14-.32-6.56-.58-6.82-7.14-7.14,6.56-.32,6.82-.58,7.14-7.14.32,6.56.58,6.82,7.14,7.14Z"/>
    </g>
  </g>
</svg>