<?xml version="1.0" encoding="UTF-8"?>
<svg id="Layer_2" data-name="Layer 2" xmlns="http://www.w3.org/2000/svg" viewBox="0 0 36.47 36.47">
  <defs>
    <style>
      .cls-1, .cls-2 {
        fill: #231f20;
      }

      .cls-3 {
        fill: #fff;
      }

      .cls-2 {
        stroke: #f1f2f2;
        stroke-miterlimit: 10;
      }
    </style>
  </defs>
  <g id="Layer_1-2" data-name="Layer 1">
    <g>
      <circle class="cls-3" cx="18.24" cy="15.67" r="15.05"/>
      <path class="cls-2" d="M6.64,4.82C-.77,11.22-1.59,22.42,4.82,29.83c6.4,7.41,17.6,8.23,25.02,1.83,7.41-6.4,8.23-17.61,1.83-25.02C25.26-.77,14.05-1.59,6.64,4.82ZM27.89,26.88c-6.26,5.41-15.72,4.72-21.13-1.54s-4.72-15.72,1.54-21.13C14.57-1.2,24.03-.51,29.44,5.75c5.41,6.26,4.72,15.72-1.54,21.13Z"/>
      <path class="cls-1" d="M25.78,25.36c5.53-4.17,6.63-12.03,2.46-17.55-4.17-5.53-12.03-6.63-17.55-2.46-5.53,4.17-6.63,12.03-2.46,17.55,4.17,5.53,12.03,6.63,17.55,2.46ZM11.83,8.8c4.67-3.52,11.3-2.59,14.82,2.08,3.52,4.67,2.59,11.3-2.08,14.82s-11.3,2.59-14.82-2.08c-3.52-4.67-2.59-11.3,2.08-14.82Z"/>
      <path class="cls-1" d="M24.92,23.88c-6.14.3-6.38.54-6.68,6.68-.3-6.14-.54-6.38-6.68-6.68,6.14-.3,6.38-.54,6.68-6.68.3,6.14.54,6.38,6.68,6.68Z"/>
      <path class="cls-1" d="M21.99,11.59c-3.48.17-3.62.31-3.78,3.78-.17-3.48-.31-3.62-3.78-3.78,3.48-.17,3.62-.31,3.78-3.78.17,3.48.31,3.62,3.78,3.78Z"/>
    </g>
  </g>
</svg>