<?xml version="1.0" encoding="UTF-8"?>
<svg id="Layer_2" data-name="Layer 2" xmlns="http://www.w3.org/2000/svg" viewBox="0 0 37.24 37.24">
  <defs>
    <style>
      .cls-1, .cls-2 {
        fill: #231f20;
      }

      .cls-3 {
        fill: #fff;
      }

      .cls-3, .cls-2 {
        stroke: #fff;
        stroke-miterlimit: 10;
      }
    </style>
  </defs>
  <g id="Layer_1-2" data-name="Layer 1">
    <g>
      <path class="cls-3" d="M33.93,25.31c-2.03,7.12-14.21,11.48-20.42,9.52-7.02-2.22-8.5-3.79-10.69-11.57C.17,13.86,6.49,7.63,16.25,7.63s20.36,8.29,17.68,17.68Z"/>
      <g>
        <path class="cls-2" d="M18.62.5C8.61.5.5,8.61.5,18.62s8.11,18.12,18.12,18.12,18.12-8.11,18.12-18.12S28.62.5,18.62.5ZM18.67,33.72c-8.45,0-15.3-6.85-15.3-15.3S10.22,3.12,18.67,3.12s15.3,6.85,15.3,15.3-6.85,15.3-15.3,15.3Z"/>
        <path class="cls-1" d="M17.53,32.91c6.47,0,11.72-5.25,11.72-11.72s-5.25-11.72-11.72-11.72-11.72,5.25-11.72,11.72,5.25,11.72,11.72,11.72ZM16.43,12.69c5.47,0,9.9,4.43,9.9,9.9s-4.43,9.9-9.9,9.9-9.9-4.43-9.9-9.9,4.43-9.9,9.9-9.9Z"/>
      </g>
      <path class="cls-1" d="M17.25,19.31c-2.81-1.52-2.99-1.47-4.77,1.18,1.52-2.81,1.47-2.99-1.18-4.77,2.81,1.52,2.99,1.47,4.77-1.18-1.52,2.81-1.47,2.99,1.18,4.77Z"/>
      <path class="cls-1" d="M19.95,28.08c-4.42-1.88-4.67-1.79-6.96,2.43,1.88-4.42,1.79-4.67-2.43-6.96,4.42,1.88,4.67,1.79,6.96-2.43-1.88,4.42-1.79,4.67,2.43,6.96Z"/>
      <path class="cls-1" d="M23.97,22.86c-1.96-1.11-2.09-1.08-3.38.77,1.11-1.96,1.08-2.09-.77-3.38,1.96,1.11,2.09,1.08,3.38-.77-1.11,1.96-1.08,2.09.77,3.38Z"/>
    </g>
  </g>
</svg>