<?xml version="1.0" encoding="UTF-8"?>
<svg id="Layer_2" data-name="Layer 2" xmlns="http://www.w3.org/2000/svg" viewBox="0 0 38.52 38.52">
  <defs>
    <style>
      .cls-1, .cls-2 {
        fill: #231f20;
      }

      .cls-3 {
        fill: #fff;
      }

      .cls-2 {
        stroke: #f1f2f2;
        stroke-miterlimit: 10;
      }
    </style>
  </defs>
  <g id="Layer_1-2" data-name="Layer 1">
    <g>
      <circle class="cls-3" cx="17.97" cy="17.08" r="15.91"/>
      <path class="cls-2" d="M1.82,12.36c-3.81,9.63.9,20.53,10.53,24.34,9.63,3.81,20.53-.9,24.34-10.53,3.81-9.63-.9-20.53-10.53-24.34C16.53-1.99,5.63,2.73,1.82,12.36ZM32.54,22.63c-3.22,8.13-12.42,12.11-20.56,8.89C3.85,28.3-.13,19.1,3.09,10.97,6.31,2.84,15.51-1.15,23.64,2.07c8.13,3.22,12.12,12.42,8.9,20.56Z"/>
      <path class="cls-1" d="M28.55,21.16c2.65-6.15-.19-13.29-6.34-15.94s-13.29.19-15.94,6.34c-2.65,6.15.19,13.29,6.34,15.95,6.15,2.65,13.29-.19,15.94-6.34ZM13.88,22.14c2.24-5.2,8.27-7.59,13.47-5.35,5.2,2.24,7.59,8.27,5.35,13.46s-8.27,7.59-13.46,5.35c-5.2-2.24-7.6-8.27-5.36-13.46Z"/>
      <path class="cls-1" d="M24.78,22c-3.58.17-3.73.32-3.9,3.9-.17-3.58-.32-3.73-3.9-3.9,3.58-.17,3.73-.32,3.9-3.9.17,3.58.32,3.73,3.9,3.9Z"/>
      <path class="cls-3" d="M29.71,29.35c-2.4.12-2.5.21-2.61,2.61-.12-2.4-.21-2.5-2.61-2.61,2.4-.12,2.5-.21,2.61-2.61.12,2.4.21,2.5,2.61,2.61Z"/>
      <path class="cls-3" d="M20.05,12.65c-4.9.24-5.1.43-5.34,5.34-.24-4.9-.43-5.1-5.34-5.34,4.9-.24,5.1-.43,5.34-5.34.24,4.9.43,5.1,5.34,5.34Z"/>
    </g>
  </g>
</svg>