<?xml version="1.0" encoding="UTF-8"?>
<svg id="Layer_2" data-name="Layer 2" xmlns="http://www.w3.org/2000/svg" viewBox="0 0 37.18 37.18">
  <defs>
    <style>
      .cls-1, .cls-2 {
        fill: #231f20;
      }

      .cls-3 {
        fill: #fff;
      }

      .cls-2 {
        stroke: #f1f2f2;
        stroke-miterlimit: 10;
      }
    </style>
  </defs>
  <g id="Layer_1-2" data-name="Layer 1">
    <g>
      <circle class="cls-3" cx="16.99" cy="20.73" r="15.35"/>
      <path class="cls-2" d="M18.59,36.68c9.99,0,18.09-8.1,18.09-18.09S28.58.5,18.59.5.5,8.6.5,18.59s8.1,18.09,18.09,18.09ZM16.9,5.48c8.44,0,15.27,6.84,15.27,15.28s-6.84,15.27-15.27,15.27S1.62,29.2,1.62,20.76s6.84-15.28,15.27-15.28Z"/>
      <path class="cls-1" d="M27.92,25.26c4.57-4.57,4.57-11.98,0-16.55-4.57-4.57-11.98-4.57-16.55,0-4.57,4.57-4.57,11.98,0,16.55s11.98,4.57,16.55,0ZM8.12,18.38c3.86-3.86,10.12-3.86,13.98,0,3.86,3.86,3.86,10.12,0,13.98-3.86,3.86-10.12,3.86-13.98,0-3.86-3.86-3.86-10.12,0-13.98Z"/>
      <path class="cls-1" d="M19.42,17.84c-2.16,4.12-2.1,4.37,1.79,6.93-4.12-2.16-4.37-2.1-6.93,1.79,2.16-4.12,2.1-4.37-1.79-6.93,4.12,2.16,4.37,2.1,6.93-1.79Z"/>
      <path class="cls-3" d="M26.46,5.3c-2.63,5.01-2.55,5.31,2.18,8.42-5.01-2.63-5.31-2.55-8.42,2.18,2.63-5.01,2.55-5.31-2.18-8.42,5.01,2.63,5.31,2.55,8.42-2.18Z"/>
    </g>
  </g>
</svg>