<?xml version="1.0" encoding="UTF-8"?>
<svg id="Layer_2" data-name="Layer 2" xmlns="http://www.w3.org/2000/svg" viewBox="0 0 36.99 36.99">
  <defs>
    <style>
      .cls-1 {
        stroke: #f1f2f2;
      }

      .cls-1, .cls-2 {
        fill: none;
        stroke-miterlimit: 10;
      }

      .cls-3 {
        fill: #f1f2f2;
      }

      .cls-4 {
        fill: #231f20;
      }

      .cls-5 {
        fill: #fff;
      }

      .cls-2 {
        stroke: #fff;
      }
    </style>
  </defs>
  <g id="Layer_1-2" data-name="Layer 1">
    <g>
      <path class="cls-4" d="M18.5,1.23C8.96,1.23,1.23,8.96,1.23,18.5s7.73,17.27,17.26,17.27,17.27-7.73,17.27-17.27S28.03,1.23,18.5,1.23ZM16.41,31.46c-8.05,0-14.58-6.53-14.58-14.58S8.36,2.3,16.41,2.3s14.58,6.53,14.58,14.58-6.53,14.58-14.58,14.58Z"/>
      <path class="cls-5" d="M21.08,30.4c6.08-1.02,10.19-6.78,9.17-12.86-1.02-6.08-6.78-10.19-12.86-9.17-6.08,1.02-10.19,6.78-9.17,12.86s6.78,10.19,12.86,9.17ZM18.75,10.84c5.14-.86,10,2.6,10.86,7.74.86,5.14-2.6,10-7.74,10.86s-10-2.6-10.86-7.74,2.6-10,7.74-10.86Z"/>
      <path class="cls-5" d="M24.52,13.02c.1,2.18.18,2.27,2.36,2.38-2.18.1-2.27.18-2.38,2.36-.1-2.18-.18-2.27-2.36-2.38,2.18-.1,2.27-.18,2.38-2.36Z"/>
      <path class="cls-3" d="M26.51,20.47c-6.34.31-6.59.56-6.9,6.9-.31-6.34-.56-6.59-6.9-6.9,6.34-.31,6.59-.56,6.9-6.9.31,6.34.56,6.59,6.9,6.9Z"/>
      <path class="cls-1" d="M36.49,18.5c0,8.85-6.39,16.21-14.8,17.71,0,0-.02,0-.02,0-1.03.18-2.09.28-3.18.28C8.58,36.49.53,28.47.5,18.55c0-.06,0-.13,0-.19,0-.11,0-.22,0-.33C.75,8.31,8.71.5,18.5.5c1.46,0,2.87.17,4.23.5.08.02.16.04.24.06,7.78,1.99,13.52,9.04,13.52,17.43Z"/>
      <path class="cls-1" d="M36.49,18.5c0,8.85-6.39,16.21-14.8,17.71,0,0,0,0-.01,0-7.77-1.99-16.14-9.04-16.14-17.43C5.54,9.97,14.5,2.64,22.85,1.08c.04,0,.08-.01.11-.02,7.78,1.99,13.52,9.04,13.52,17.43Z"/>
      <path class="cls-2" d="M30.17,18.93c0,8.01-3.1,14.14-8.48,17.27,0,0,0,0-.01,0-1.03.18-2.09.28-3.18.28C8.58,36.49.53,28.47.5,18.55c0-.06,0-.13,0-.19,0-.11,0-.22,0-.33C.75,8.31,8.71.5,18.5.5c1.46,0,2.87.17,4.23.5.04.03.09.06.13.08,4.9,3.24,7.31,9.93,7.31,17.85Z"/>
    </g>
  </g>
</svg>