<?xml version="1.0" encoding="UTF-8"?>
<svg id="Layer_2" data-name="Layer 2" xmlns="http://www.w3.org/2000/svg" viewBox="0 0 38.03 38.03">
  <defs>
    <style>
      .cls-1, .cls-2 {
        fill: #231f20;
      }

      .cls-3 {
        fill: #fff;
      }

      .cls-2 {
        stroke: #f1f2f2;
        stroke-miterlimit: 10;
      }
    </style>
  </defs>
  <g id="Layer_1-2" data-name="Layer 1">
    <g>
      <circle class="cls-3" cx="19.86" cy="19.25" r="15.71"/>
      <path class="cls-2" d="M19.01.5C8.79.5.5,8.79.5,19.01s8.29,18.51,18.51,18.51,18.51-8.29,18.51-18.51S29.24.5,19.01.5ZM19.51,34.39c-8.42,0-15.25-6.83-15.25-15.25S11.09,3.9,19.51,3.9s15.25,6.83,15.25,15.25-6.83,15.25-15.25,15.25Z"/>
      <path class="cls-1" d="M7.75,16.02c-1.85,6.35,1.8,13,8.15,14.85,6.35,1.85,13-1.8,14.85-8.15,1.85-6.35-1.8-13-8.15-14.85-6.35-1.85-13,1.8-14.85,8.15ZM27.49,22.3c-2.54,4.98-8.63,6.96-13.6,4.42-4.98-2.54-6.96-8.63-4.42-13.6,2.54-4.98,8.63-6.96,13.6-4.42,4.98,2.54,6.96,8.63,4.42,13.6Z"/>
      <path class="cls-1" d="M34.35,19.1c-13.94.68-14.49,1.23-15.17,15.17-.68-13.94-1.23-14.49-15.17-15.17,13.94-.68,14.49-1.23,15.17-15.17.68,13.94,1.23,14.49,15.17,15.17Z"/>
      <path class="cls-1" d="M16.75,9.1c-3.01.13-3.13.25-3.29,3.25-.13-3.01-.25-3.13-3.25-3.29,3.01-.13,3.13-.25,3.29-3.25.13,3.01.25,3.13,3.25,3.29Z"/>
      <path class="cls-1" d="M26.49,13.38c-1.82.09-1.89.16-1.98,1.98-.09-1.82-.16-1.89-1.98-1.98,1.82-.09,1.89-.16,1.98-1.98.09,1.82.16,1.89,1.98,1.98Z"/>
    </g>
  </g>
</svg>