<?xml version="1.0" encoding="UTF-8"?>
<svg id="Layer_2" data-name="Layer 2" xmlns="http://www.w3.org/2000/svg" viewBox="0 0 37.38 37.38">
  <defs>
    <style>
      .cls-1, .cls-2 {
        fill: #231f20;
      }

      .cls-3 {
        fill: #fff;
      }

      .cls-2 {
        stroke: #f1f2f2;
        stroke-miterlimit: 10;
      }
    </style>
  </defs>
  <g id="Layer_1-2" data-name="Layer 1">
    <g>
      <circle class="cls-3" cx="18.84" cy="20.18" r="15.44"/>
      <path class="cls-2" d="M6.8,4.93C-.8,11.49-1.64,22.98,4.93,30.58c6.57,7.6,18.06,8.44,25.66,1.87s8.44-18.06,1.87-25.66C25.89-.8,14.4-1.64,6.8,4.93ZM28.6,27.55c-6.42,5.55-16.12,4.84-21.67-1.58C1.38,19.55,2.09,9.85,8.51,4.3,14.93-1.24,24.63-.54,30.18,5.88c5.55,6.42,4.84,16.12-1.58,21.67Z"/>
      <path class="cls-1" d="M27.03,27.01c4.65-4.54,4.74-11.99.19-16.64-4.54-4.65-11.99-4.74-16.64-.19s-4.74,11.99-.19,16.64c4.54,4.65,11.99,4.74,16.64.19ZM12.06,13.27c3.93-3.84,10.22-3.76,14.06.16,3.84,3.93,3.76,10.22-.16,14.05-3.93,3.84-10.22,3.76-14.05-.16-3.84-3.93-3.76-10.22.16-14.06Z"/>
      <path class="cls-1" d="M27.23,22.16c-5.4.25-5.62.47-5.89,5.87-.25-5.4-.47-5.62-5.87-5.89,5.4-.25,5.62-.47,5.89-5.87.25,5.4.47,5.62,5.87,5.89Z"/>
      <path class="cls-1" d="M20.02,16.83c-3.94.19-4.09.35-4.28,4.28-.19-3.94-.35-4.09-4.28-4.28,3.94-.19,4.09-.35,4.28-4.28.19,3.94.35,4.09,4.28,4.28Z"/>
    </g>
  </g>
</svg>