<?xml version="1.0" encoding="UTF-8"?>
<svg id="Layer_2" data-name="Layer 2" xmlns="http://www.w3.org/2000/svg" viewBox="0 0 36.67 36.67">
  <defs>
    <style>
      .cls-1, .cls-2 {
        fill: #231f20;
      }

      .cls-3 {
        fill: #fff;
      }

      .cls-2 {
        stroke: #f1f2f2;
        stroke-miterlimit: 10;
      }
    </style>
  </defs>
  <g id="Layer_1-2" data-name="Layer 1">
    <g>
      <circle class="cls-3" cx="18.54" cy="19.65" r="15.13"/>
      <path class="cls-2" d="M18.33.5C8.48.5.5,8.48.5,18.33s7.98,17.84,17.83,17.84,17.84-7.99,17.84-17.84S28.19.5,18.33.5ZM18.71,34.5c-8.32,0-15.06-6.74-15.06-15.06s6.74-15.06,15.06-15.06,15.06,6.74,15.06,15.06-6.74,15.06-15.06,15.06Z"/>
      <path class="cls-1" d="M15.46,26.33c4.29,4.72,11.58,5.07,16.3.78,4.72-4.29,5.07-11.58.78-16.3-4.29-4.72-11.58-5.07-16.3-.78-4.72,4.29-5.07,11.58-.78,16.3ZM29.47,12.14c3.62,3.98,3.32,10.15-.66,13.77-3.98,3.62-10.15,3.32-13.76-.66-3.62-3.98-3.32-10.15.66-13.76s10.15-3.32,13.77.66Z"/>
      <path class="cls-1" d="M11.94,19.11c-3.36.16-3.49.3-3.66,3.66-.16-3.36-.3-3.49-3.66-3.66,3.36-.16,3.49-.3,3.66-3.66.16,3.36.3,3.49,3.66,3.66Z"/>
      <path class="cls-1" d="M14.99,10.51c-3.36.16-3.49.3-3.66,3.66-.16-3.36-.3-3.49-3.66-3.66,3.36-.16,3.49-.3,3.66-3.66.16,3.36.3,3.49,3.66,3.66Z"/>
      <path class="cls-1" d="M15.51,27.81c-3.36.16-3.49.3-3.66,3.66-.16-3.36-.3-3.49-3.66-3.66,3.36-.16,3.49-.3,3.66-3.66.16,3.36.3,3.49,3.66,3.66Z"/>
      <path class="cls-1" d="M30.91,19.04c-6.97.34-7.25.62-7.59,7.59-.34-6.97-.62-7.25-7.59-7.59,6.97-.34,7.25-.62,7.59-7.59.34,6.97.62,7.25,7.59,7.59Z"/>
    </g>
  </g>
</svg>