<?xml version="1.0" encoding="UTF-8"?>
<svg version="1.1" xmlns="http://www.w3.org/2000/svg" width="304" height="171">
  <path
    d="M0 0 C2.17786882 1.74229506 3.6635016 3.42389718 5.1875 5.75 C5.65800781 5.32847656 6.12851563 4.90695313 6.61328125 4.47265625 C7.23589844 3.92480469 7.85851562 3.37695312 8.5 2.8125 C9.11488281 2.26722656 9.72976562 1.72195312 10.36328125 1.16015625 C14.17788225 -1.78860383 18.56226477 -1.75687509 23.1875 -1.25 C26.8855849 0.39359329 29.09184646 2.29217166 31.1875 5.75 C32.44461386 9.44354323 32.301029 13.04892355 32.28515625 16.921875 C32.2837413 17.6042926 32.28232635 18.28671021 32.28086853 18.98980713 C32.27529084 21.15991684 32.26274254 23.3299217 32.25 25.5 C32.24498211 26.97525892 32.24041971 28.45051947 32.23632812 29.92578125 C32.22532875 33.53388798 32.20807953 37.14193375 32.1875 40.75 C28.5575 40.75 24.9275 40.75 21.1875 40.75 C21.13851562 39.00332031 21.08953125 37.25664063 21.0390625 35.45703125 C20.96401947 33.15883852 20.8884723 30.8606622 20.8125 28.5625 C20.7815625 27.41201172 20.750625 26.26152344 20.71875 25.07617188 C20.66074219 23.40844727 20.66074219 23.40844727 20.6015625 21.70703125 C20.5701416 20.68585205 20.5387207 19.66467285 20.50634766 18.61254883 C20.17416194 15.63025365 19.55660853 13.41645648 18.1875 10.75 C15.36222339 9.63475923 13.87528848 9.51418681 11 10.5 C8.89636156 11.78583873 8.89636156 11.78583873 7.1875 14.75 C6.81905492 17.5586043 6.81905492 17.5586043 6.7734375 20.73046875 C6.73476562 21.89384766 6.69609375 23.05722656 6.65625 24.25585938 C6.60984375 26.07827148 6.60984375 26.07827148 6.5625 27.9375 C6.52382812 29.16404297 6.48515625 30.39058594 6.4453125 31.65429688 C6.35094206 34.68594715 6.26812826 37.71795312 6.1875 40.75 C2.2275 40.75 -1.7325 40.75 -5.8125 40.75 C-5.82708252 39.88197754 -5.84166504 39.01395508 -5.85668945 38.11962891 C-5.91770111 34.90261121 -5.99184391 31.68624337 -6.07495117 28.46972656 C-6.10822873 27.07693911 -6.13625197 25.68401589 -6.15893555 24.29101562 C-6.19242689 22.29008622 -6.24631305 20.28953079 -6.30078125 18.2890625 C-6.32696533 17.08459473 -6.35314941 15.88012695 -6.38012695 14.63916016 C-6.52281006 13.6857373 -6.66549316 12.73231445 -6.8125 11.75 C-9.55082802 9.49358069 -9.55082802 9.49358069 -12.25 9.875 C-15.42774449 10.96008348 -16.70511693 12.1407025 -18.8125 14.75 C-19.45078469 17.63873888 -19.45078469 17.63873888 -19.421875 20.828125 C-19.45410156 21.98828125 -19.48632812 23.1484375 -19.51953125 24.34375 C-19.54080078 26.15359375 -19.54080078 26.15359375 -19.5625 28 C-19.59214844 29.22203125 -19.62179688 30.4440625 -19.65234375 31.703125 C-19.72301413 34.71839445 -19.77002397 37.73420161 -19.8125 40.75 C-23.7725 40.75 -27.7325 40.75 -31.8125 40.75 C-31.8125 27.22 -31.8125 13.69 -31.8125 -0.25 C-28.1825 -0.25 -24.5525 -0.25 -20.8125 -0.25 C-20.4825 1.07 -20.1525 2.39 -19.8125 3.75 C-18.884375 3.110625 -17.95625 2.47125 -17 1.8125 C-11.58851142 -1.68905143 -5.94281646 -2.64125176 0 0 Z "
    fill="#323232"
    transform="translate(210.8125,37.25)"
  />
  <path
    d="M0 0 C33.95697329 0 33.95697329 0 40.58203125 6.25390625 C46.8434104 13.96419958 48.91399918 21.60520854 48.44140625 31.44921875 C47.32006999 40.46952549 44.22442986 45.5434404 37.31640625 51.40625 C26.56575907 58.80298533 12.11621147 56 0 56 C0 37.52 0 19.04 0 0 Z M12 10 C12 21.55 12 33.1 12 45 C24.53290527 45.95446378 24.53290527 45.95446378 29.625 43.375 C30.40875 42.59125 31.1925 41.8075 32 41 C32.78375 40.21625 33.5675 39.4325 34.375 38.625 C37.14114362 32.45437193 37.27885021 25.13061779 35.26953125 18.640625 C32.86226483 14.04225487 29.64706678 11.83193527 24.8125 10.3125 C20.56652585 9.84072509 16.27210347 10 12 10 Z "
    fill="#323232"
    transform="translate(0,22)"
  />
  <path
    d="M0 0 C3.62261304 3.05909546 5.66190785 5.46968802 7 10 C7.23475692 13.27560979 7.18862873 16.53072567 7.125 19.8125 C7.11597656 20.69615234 7.10695312 21.57980469 7.09765625 22.49023438 C7.07419637 24.66027359 7.03832865 26.83017247 7 29 C7.66 29 8.32 29 9 29 C9 32.3 9 35.6 9 39 C1.73846154 39.49230769 1.73846154 39.49230769 -2 37 C-2.66 36.34 -3.32 35.68 -4 35 C-4.9075 35.66 -5.815 36.32 -6.75 37 C-11.79099078 39.8908539 -17.3552955 39.85362698 -23 39 C-27.54276874 36.83957406 -29.31885001 34.59939487 -31.33203125 30.12109375 C-32.41308163 26.68828465 -32.0892755 24.39597655 -31 21 C-27.85839695 17.05055617 -24.63370577 14.91570168 -20 13 C-17.2811224 12.79402442 -14.82358378 12.71051864 -12.125 12.8125 C-11.43664062 12.82603516 -10.74828125 12.83957031 -10.0390625 12.85351562 C-8.35902999 12.8885163 -6.6794065 12.94231046 -5 13 C-6.08784968 9.75016865 -6.08784968 9.75016865 -8 7 C-14.20961817 6.3919018 -18.50021105 6.91475254 -24 10 C-27 9 -27 9 -28.25 7.1875 C-29.15704423 4.54195434 -29.09308085 3.56050445 -28 1 C-19.27876675 -4.12827508 -8.85197157 -5.03347403 0 0 Z M-20 22 C-21.16977494 24.34872531 -21.16977494 24.34872531 -21 27 C-19.69138543 29.55985074 -19.69138543 29.55985074 -17 31 C-13.15865019 31.2592322 -9.9555434 30.45388312 -6.5 28.8125 C-4.36218717 26.2293095 -4.7114137 24.24659592 -5 21 C-7.32595946 19.83702027 -8.78723231 19.83399309 -11.375 19.8125 C-12.14585937 19.79832031 -12.91671875 19.78414062 -13.7109375 19.76953125 C-16.26650594 20.02683251 -17.84321287 20.61756596 -20 22 Z "
    fill="#323232"
    transform="translate(166,39)"
  />
  <path
    d="M0 0 C3.96 0.33 7.92 0.66 12 1 C15.66327973 9.58254108 18.91897807 18.19708021 22 27 C24.97 18.42 27.94 9.84 31 1 C34.63 1 38.26 1 42 1 C41.32728427 4.36357863 40.66757871 7.23087533 39.57299805 10.41967773 C39.28567307 11.26082626 38.99834808 12.10197479 38.70231628 12.96861267 C38.3919191 13.86455643 38.08152191 14.76050018 37.76171875 15.68359375 C37.43967972 16.6167189 37.11764069 17.54984406 36.7858429 18.51124573 C36.10424504 20.48119023 35.42078676 22.45049187 34.7355957 24.41918945 C33.69341783 27.42045781 32.6639242 30.42588714 31.63476562 33.43164062 C30.96952864 35.34922863 30.30353766 37.26655527 29.63671875 39.18359375 C29.33239426 40.07751328 29.02806976 40.9714328 28.71452332 41.8924408 C26.11999726 49.27349524 23.41442256 55.43009284 16 59 C12.63298427 59.3627589 9.36591177 59.38666783 6 59 C5 58 5 58 4.90234375 55.71484375 C4.91394531 54.79832031 4.92554688 53.88179687 4.9375 52.9375 C4.94652344 52.01839844 4.95554687 51.09929687 4.96484375 50.15234375 C4.98224609 49.08693359 4.98224609 49.08693359 5 48 C7.64 48 10.28 48 13 48 C15.08546671 43.82906657 15.02301075 41.50692885 14 37 C13.05688811 34.22922163 11.95770856 31.53241892 10.83984375 28.828125 C10.53051407 28.06449646 10.22118439 27.30086792 9.90248108 26.51409912 C8.91991361 24.09034276 7.92933023 21.66997908 6.9375 19.25 C5.94304601 16.81537683 4.95038968 14.38006769 3.96180725 11.9430542 C3.34780742 10.43021701 2.73026655 8.91881125 2.10887146 7.40899658 C0 2.22395457 0 2.22395457 0 0 Z "
    fill="#323232"
    transform="translate(48,36)"
  />
  <path
    d="M0 0 C3.34704057 2.33514459 4.17390789 4.09690333 5.6875 7.875 C5.93428591 10.56363958 6.04046343 13.00281248 5.98046875 15.6796875 C5.97622391 16.4036673 5.97197906 17.12764709 5.96760559 17.87356567 C5.95092972 20.16610287 5.91330081 22.45773246 5.875 24.75 C5.85993871 26.31248722 5.84625284 27.87498835 5.83398438 29.4375 C5.80106293 33.25034505 5.74936002 37.06251911 5.6875 40.875 C2.0575 40.875 -1.5725 40.875 -5.3125 40.875 C-5.33755615 40.07280029 -5.3626123 39.27060059 -5.38842773 38.4440918 C-5.50432043 34.81672926 -5.62707751 31.18963083 -5.75 27.5625 C-5.78931641 26.29986328 -5.82863281 25.03722656 -5.86914062 23.73632812 C-5.91103516 22.52783203 -5.95292969 21.31933594 -5.99609375 20.07421875 C-6.03275146 18.95877686 -6.06940918 17.84333496 -6.10717773 16.6940918 C-6.20181209 13.79626429 -6.20181209 13.79626429 -7.3125 10.875 C-11.37995548 9.71286986 -12.83306171 9.61266584 -16.625 11.6875 C-19.34325197 13.59369511 -19.34325197 13.59369511 -20.3125 15.875 C-20.46594209 17.75972859 -20.56209571 19.64927874 -20.62890625 21.5390625 C-20.67080078 22.66054688 -20.71269531 23.78203125 -20.75585938 24.9375 C-20.81483398 26.7009375 -20.81483398 26.7009375 -20.875 28.5 C-20.91818359 29.68335937 -20.96136719 30.86671875 -21.00585938 32.0859375 C-21.11217338 35.01547907 -21.21286217 37.94522377 -21.3125 40.875 C-24.9425 40.875 -28.5725 40.875 -32.3125 40.875 C-32.3125 27.345 -32.3125 13.815 -32.3125 -0.125 C-29.0125 -0.125 -25.7125 -0.125 -22.3125 -0.125 C-21.9825 1.525 -21.6525 3.175 -21.3125 4.875 C-20.590625 4.25625 -19.86875 3.6375 -19.125 3 C-13.09137964 -1.55873538 -7.13386414 -2.42282178 0 0 Z "
    fill="#323232"
    transform="translate(125.3125,37.125)"
  />
  <path
    d="M0 0 C2.38364314 1.86015648 4.03742371 3.64490845 6 6 C6 6.99 6 7.98 6 9 C2.2222918 10.40565887 -0.95686646 11.53199126 -5 11 C-5.61875 10.505 -6.2375 10.01 -6.875 9.5 C-10.05249666 7.25706118 -12.20677528 7.46761758 -16 8 C-19.14358251 9.7260029 -19.14358251 9.7260029 -21 13 C-21.91229038 17.88155381 -21.72032606 21.6927416 -19.3125 26.0625 C-16.67324081 28.27377121 -15.43142629 28.91829937 -12 29 C-8.77825456 28.28776153 -8.77825456 28.28776153 -6 27 C-5.67 26.34 -5.34 25.68 -5 25 C-0.94393835 25.46800711 2.46588679 25.87953208 6 28 C4.43080691 33.13554103 1.71429299 35.30204542 -2.7421875 38.08984375 C-8.78575408 40.52609118 -17.51796137 40.10138849 -23.5 37.5625 C-28.77643011 34.40798909 -32.09598746 28.71203761 -34 23 C-34.74118155 16.1592588 -34.12032059 10.63070204 -30 5 C-22.00983325 -3.70599283 -10.45750987 -5.91934521 0 0 Z "
    fill="#323232"
    transform="translate(298,39)"
  />
  <path
    d="M0 0 C1.98 0 3.96 0 6 0 C6.33 1.65 6.66 3.3 7 5 C7.44988281 4.6390625 7.89976563 4.278125 8.36328125 3.90625 C13.30367786 0.34203602 17.22403082 -0.79741943 23.3203125 -0.4765625 C28.60481391 0.46324679 32.24035395 2.78398689 35.56640625 6.97265625 C39.34329385 12.72945073 40.84312942 18.05308854 40 25 C38.19947925 31.75966935 35.88288483 36.15811603 30 40 C25.8545676 42.29089685 21.65398415 42.6022803 17 42 C13.03375566 40.42846922 11.04271129 39.04271129 8 36 C7.67 43.26 7.34 50.52 7 58 C4.69 58 2.38 58 0 58 C0 38.86 0 19.72 0 0 Z M8.828125 9.58984375 C6.22862623 13.01696072 6.33949046 16.24168993 6.375 20.375 C6.34277344 21.1175 6.31054688 21.86 6.27734375 22.625 C6.2697395 26.92900565 6.81657256 29.32881752 9.8515625 32.4765625 C13.50878726 35.78689293 17.02043631 36.35355976 21.9375 36.28125 C25.38132092 35.81163806 27.40999592 34.22860816 30 32 C33.90903427 26.58319537 33.78837478 21.46467319 33 15 C30.86210085 10.48665736 28.547377 8.05714674 24 6 C17.97687984 4.16687647 13.80095908 5.94965766 8.828125 9.58984375 Z "
    fill="#323232"
    transform="translate(91,109)"
  />
  <path
    d="M0 0 C3.30730464 2.26598034 5.75809587 4.6371438 8 8 C8 8.99 8 9.98 8 11 C6.35 11.66 4.7 12.32 3 13 C1.9790625 11.6078125 1.9790625 11.6078125 0.9375 10.1875 C-2.89515386 5.63353208 -7.07111412 4.21432065 -12.9375 3.5625 C-18.77445541 3.81184567 -23.35040046 6.30698995 -27.375 10.4375 C-31.74792517 17.33326662 -31.72309861 24.00976032 -31 32 C-29.36934303 37.96672211 -26.03452585 41.57652242 -21 45 C-15.95579598 47.4660553 -11.35537344 47.33404464 -6 46 C-2.06149308 43.88487591 0.58075113 41.76327602 3 38 C5.97 38.495 5.97 38.495 9 39 C8.91950482 41.73683617 8.44704167 43.49343721 6.62109375 45.5625 C0.3836693 51.14408787 -6.56872425 54.2063118 -15 54 C-22.96363037 52.74386841 -28.27408268 49.47545549 -33.37866211 43.34399414 C-37.5184056 37.46487596 -37.85584155 32.18677032 -37.75 25.125 C-37.7389624 24.05596436 -37.7279248 22.98692871 -37.71655273 21.88549805 C-37.47955121 15.10412911 -36.88453278 9.89838137 -32.140625 4.7109375 C-22.54159722 -2.96127814 -11.33266398 -6.03613471 0 0 Z "
    fill="#323232"
    transform="translate(37,97)"
  />
  <path
    d="M0 0 C4.20824471 2.00950443 6.09948715 4.86919726 8.02148438 8.89257812 C9.60352218 13.77726421 9.23216702 18.79244925 9.07421875 23.87109375 C9.05617187 24.9796875 9.038125 26.08828125 9.01953125 27.23046875 C8.97273025 29.94492671 8.9071825 32.65754091 8.82421875 35.37109375 C9.48421875 35.37109375 10.14421875 35.37109375 10.82421875 35.37109375 C10.82421875 37.02109375 10.82421875 38.67109375 10.82421875 40.37109375 C8.01171875 40.62109375 8.01171875 40.62109375 4.82421875 40.37109375 C2.94921875 38.37109375 2.94921875 38.37109375 1.82421875 36.37109375 C0.91671875 37.01046875 0.00921875 37.64984375 -0.92578125 38.30859375 C-5.84341231 41.42939807 -10.34615294 42.15417815 -16.17578125 41.37109375 C-19.84160398 40.03277752 -22.55042377 38.09731534 -25.11328125 35.12109375 C-26.54223855 31.42261604 -26.88194172 28.28274671 -26.17578125 24.37109375 C-23.65449194 20.00732378 -20.79779443 18.21989902 -16.17578125 16.37109375 C-13.03803811 16.02601955 -9.95240368 16.08557678 -6.80078125 16.18359375 C-5.96933594 16.19712891 -5.13789063 16.21066406 -4.28125 16.22460938 C-2.24581059 16.25970316 -0.21070834 16.31350147 1.82421875 16.37109375 C1.48018204 11.66441701 1.48018204 11.66441701 -0.4765625 7.48828125 C-3.75632649 5.33193067 -7.32918726 5.24680961 -11.17578125 5.37109375 C-14.04778153 6.10521472 -16.44816511 7.14836928 -19.17578125 8.37109375 C-20.16578125 8.70109375 -21.15578125 9.03109375 -22.17578125 9.37109375 C-22.83578125 7.72109375 -23.49578125 6.07109375 -24.17578125 4.37109375 C-16.41841832 -0.43435231 -9.02180461 -2.60773886 0 0 Z M-20.17578125 25.37109375 C-20.62689826 28.82965749 -20.59597165 30.69513527 -18.73828125 33.68359375 C-15.02748642 36.12728791 -11.58365663 36.57771291 -7.17578125 36.37109375 C-3.80680173 35.27120437 -3.80680173 35.27120437 -1.17578125 33.37109375 C-0.57765625 32.97921875 0.02046875 32.58734375 0.63671875 32.18359375 C2.61694727 29.16113969 2.53217143 25.93407101 2.82421875 22.37109375 C-5.49829033 19.59692406 -13.39006901 18.58538151 -20.17578125 25.37109375 Z "
    fill="#323232"
    transform="translate(198.17578125,109.62890625)"
  />
  <path
    d="M0 0 C3.76916441 2.7326442 6.02501042 5.38753126 7.5 9.8125 C7.58266486 11.73156917 7.60740663 13.65339474 7.59765625 15.57421875 C7.59443359 16.69248047 7.59121094 17.81074219 7.58789062 18.96289062 C7.57532227 20.71375977 7.57532227 20.71375977 7.5625 22.5 C7.55798828 23.67884766 7.55347656 24.85769531 7.54882812 26.07226562 C7.53703273 28.98572789 7.5205727 31.89908863 7.5 34.8125 C8.16 34.8125 8.82 34.8125 9.5 34.8125 C9.5 36.4625 9.5 38.1125 9.5 39.8125 C6.6875 40.0625 6.6875 40.0625 3.5 39.8125 C1.625 37.8125 1.625 37.8125 0.5 35.8125 C-0.8921875 36.7715625 -0.8921875 36.7715625 -2.3125 37.75 C-7.3527607 41.01134516 -11.63446704 41.50428213 -17.5 40.8125 C-21.52643633 39.46264108 -24.03934874 37.49604703 -26.4375 33.9375 C-27.60040079 30.51720355 -28.02179877 28.3905487 -27.5 24.8125 C-24.97888516 19.86723628 -22.60887226 17.8477418 -17.5 15.8125 C-14.67885018 15.57994202 -12.11682875 15.47979169 -9.3125 15.5625 C-8.60158203 15.56765625 -7.89066406 15.5728125 -7.15820312 15.578125 C-4.02404234 15.62529957 -1.49090091 15.81553303 1.5 16.8125 C-0.03197921 10.72637535 -0.03197921 10.72637535 -3.5625 5.6875 C-9.04200355 4.05530745 -14.45497709 4.7473839 -19.5 7.375 C-20.16 7.849375 -20.82 8.32375 -21.5 8.8125 C-22.16 8.8125 -22.82 8.8125 -23.5 8.8125 C-23.83 7.1625 -24.16 5.5125 -24.5 3.8125 C-17.34759118 -2.01538867 -8.69608173 -2.9504563 0 0 Z M-19.5 22.8125 C-21.81537595 25.62958195 -21.81537595 25.62958195 -21.3125 28.8125 C-20.45806879 31.96732292 -19.97740494 32.82718234 -17.5 34.8125 C-12.77380535 36.36925445 -8.56715451 36.21292381 -4.0625 34.125 C-0.99682632 32.52094044 0.26371798 31.05389614 1.5 27.8125 C1.66724737 24.64554044 1.66724737 24.64554044 1.5 21.8125 C-6.26277016 19.27771791 -12.15926499 18.92622852 -19.5 22.8125 Z "
    fill="#323232"
    transform="translate(75.5,110.1875)"
  />
  <path
    d="M0 0 C1.98 0 3.96 0 6 0 C6 4.29 6 8.58 6 13 C9.3 13 12.6 13 16 13 C16 14.98 16 16.96 16 19 C12.7 19 9.4 19 6 19 C6.13835803 23.45859862 6.28694579 27.91679786 6.4375 32.375 C6.47681641 33.64601562 6.51613281 34.91703125 6.55664062 36.2265625 C6.61948242 38.04414063 6.61948242 38.04414063 6.68359375 39.8984375 C6.72025146 41.01911621 6.75690918 42.13979492 6.79467773 43.29443359 C6.82596013 45.96712771 6.82596013 45.96712771 8 48 C11.5219721 48.08004482 14.61981469 48.04005702 18 47 C18.33 48.98 18.66 50.96 19 53 C13.84316875 55.01242195 9.05089062 56.07193454 3.6875 54.1875 C2 53 2 53 0 50 C-0.22705078 46.8137207 -0.22705078 46.8137207 -0.1953125 42.92578125 C-0.19106766 41.90003242 -0.19106766 41.90003242 -0.18673706 40.8535614 C-0.17555684 38.67302835 -0.15045691 36.49290855 -0.125 34.3125 C-0.11496738 32.83268823 -0.10584202 31.35287001 -0.09765625 29.87304688 C-0.07562481 26.248564 -0.04111002 22.62432234 0 19 C-1.65 19 -3.3 19 -5 19 C-5 17.02 -5 15.04 -5 13 C-3.35 13 -1.7 13 0 13 C0 8.71 0 4.42 0 0 Z "
    fill="#323232"
    transform="translate(153,96)"
  />
  <path
    d="M0 0 C3.63 0 7.26 0 11 0 C11 13.86 11 27.72 11 42 C7.37 42 3.74 42 0 42 C0 28.14 0 14.28 0 0 Z "
    fill="#323232"
    transform="translate(249,36)"
  />
  <path
    d="M0 0 C2.31 0 4.62 0 7 0 C7.33 16.83 7.66 33.66 8 51 C10.64 51 13.28 51 16 51 C16 52.98 16 54.96 16 57 C12.39427296 58.20190901 9.7897565 58.32670315 6 58 C3.24670979 56.20437595 1.47372539 54.94745078 0 52 C-0.09039906 50.3351936 -0.11755257 48.66676579 -0.11352539 46.99951172 C-0.11344986 45.95858368 -0.11337433 44.91765564 -0.11329651 43.84518433 C-0.10813522 42.71807037 -0.10297394 41.59095642 -0.09765625 40.4296875 C-0.0962413 39.27832306 -0.09482635 38.12695862 -0.09336853 36.94070435 C-0.08775716 33.25211014 -0.0752027 29.56357595 -0.0625 25.875 C-0.05748647 23.37890712 -0.05292331 20.8828133 -0.04882812 18.38671875 C-0.03778403 12.25779191 -0.0210348 6.12890024 0 0 Z "
    fill="#323232"
    transform="translate(215,93)"
  />
  <path
    d="M0 0 C1.98 0 3.96 0 6 0 C6 13.53 6 27.06 6 41 C4.02 41 2.04 41 0 41 C0 27.47 0 13.94 0 0 Z "
    fill="#323232"
    transform="translate(137,109)"
  />
  <path
    d="M0 0 C3.63 0 7.26 0 11 0 C11 3.96 11 7.92 11 12 C7.37 12 3.74 12 0 12 C0 8.04 0 4.08 0 0 Z "
    fill="#323232"
    transform="translate(249,20)"
  />
  <path
    d="M0 0 C1.98 0 3.96 0 6 0 C6 2.97 6 5.94 6 9 C4.02 9 2.04 9 0 9 C0 6.03 0 3.06 0 0 Z "
    fill="#323232"
    transform="translate(137,93)"
  />
</svg>
