<svg
  xmlns="http://www.w3.org/2000/svg"
  width="24"
  height="24"
  viewBox="0 0 24 24"
  fill="none"
>
  <rect width="24" height="15" x="0" y="4.5" rx="2" fill="#1A1F71" />
  <path
    d="M5.5 8.5h1.5l1 3.5 1-3.5h1.5l-1.75 6H6.25l-1.5-4.5-.75 4.5H2.5l1.5-6z"
    fill="white"
  />
  <path d="M11 8.5h1.25v6H11v-6z" fill="white" />
  <path
    d="M14 8.5c.75 0 1.5.25 1.5 1.25 0 .5-.25.75-.75 1l.75 1.25c.5-.25.75-.75.75-1.5 0-1.5-1.25-2-2.25-2H13v6h1v-2.5h.5l1 2.5h1.25l-1.25-2.5c.5-.25.75-.75.75-1.25 0-1-1-1.75-2-1.75z"
    fill="white"
  />
  <path
    d="M18 8.5c1 0 1.75.75 1.75 1.75s-.75 1.75-1.75 1.75-1.75-.75-1.75-1.75.75-1.75 1.75-1.75zm0 .75c-.5 0-1 .25-1 1s.5 1 1 1 1-.25 1-1-.5-1-1-1z"
    fill="white"
  />
</svg>
