<svg
  xmlns="http://www.w3.org/2000/svg"
  width="24"
  height="24"
  viewBox="0 0 24 24"
  fill="currentColor"
>
  <circle cx="12" cy="12" r="12" fill="#26A17B" />
  <path
    d="M12.5 7.5h2.75a.75.75 0 0 0 0-1.5H8.75a.75.75 0 0 0 0 1.5h2.75v1.25c-2.5.125-4.5.875-4.5 1.875 0 1.125 2.25 2 5 2s5-.875 5-2c0-1-2-1.75-4.5-1.875V7.5zm0 2.25c2.25 0 3.75.5 3.75 1s-1.5 1-3.75 1-3.75-.5-3.75-1 1.5-1 3.75-1z"
    fill="white"
  />
  <path
    d="M7 13.5c0 1.125 2.25 2 5 2s5-.875 5-2v1c0 1.125-2.25 2-5 2s-5-.875-5-2v-1z"
    fill="white"
  />
  <path
    d="M7 15.5c0 1.125 2.25 2 5 2s5-.875 5-2v1c0 1.125-2.25 2-5 2s-5-.875-5-2v-1z"
    fill="white"
  />
</svg>
