<svg
  xmlns="http://www.w3.org/2000/svg"
  viewBox="0 0 120 120"
  role="img"
  aria-labelledby="title desc"
>
  <title id="title">HIPAA Compliance Badge</title>
  <desc id="desc">HIPAA compliance logo with shield and caduceus.</desc>
  <defs>
    <linearGradient id="hipaaShield" x1="0%" y1="0%" x2="0%" y2="100%">
      <stop offset="0%" stop-color="#5b8def" />
      <stop offset="100%" stop-color="#2d4d9c" />
    </linearGradient>
  </defs>
  <path
    d="M60 8l36 12v30c0 20-12.8 38.2-36 50-23.2-11.8-36-30-36-50V20z"
    fill="url(#hipaaShield)"
  />
  <path
    d="M60 30c7 0 12 5.2 12 12 0 6.2-3.8 10.4-9.6 11.6l5.6 12.4h-6.8l-3.6-8-3.6 8H48l5.6-12.4C47.8 52.4 44 48.2 44 42c0-6.8 5.2-12 12-12zm0 18c3.4 0 6-2.2 6-6s-2.6-6-6-6-6 2.2-6 6 2.6 6 6 6z"
    fill="#ffffff"
  />
  <path d="M60 78c7.2 0 13 5.8 13 13H47c0-7.2 5.8-13 13-13z" fill="#f0f6ff" />
  <text
    x="50%"
    y="108"
    text-anchor="middle"
    fill="#1f2a54"
    font-family="'Inter', 'Segoe UI', 'Helvetica Neue', Arial, sans-serif"
    font-size="16"
    font-weight="700"
  >HIPAA</text>
</svg>
